<svg width="24.000000" height="24.000000" viewBox="0 0 24 24" fill="none" xmlns="http://www.w3.org/2000/svg" xmlns:xlink="http://www.w3.org/1999/xlink">
	<desc>
			Created with Pixso.
	</desc>
	<defs>
		<clipPath id="clip3_169">
			<rect id="Smiley" width="24.000000" height="24.000000" fill="white"/>
		</clipPath>
	</defs>
	<g clip-path="url(#clip3_169)">
		<path id="矢量 373" d="M22 12C22 6.47715 17.5228 2 12 2C6.47714 2 2 6.47715 2 12C2 17.5228 6.47714 22 12 22C17.5228 22 22 17.5228 22 12Z" stroke="#000000" stroke-width="1.500000"/>
		<path id="矢量 374" d="M17 12.08C17 14.84 14.76 17.08 12 17.08C9.24001 17.08 7 14.84 7 12.08" stroke="#000000" stroke-width="1.500000"/>
		<path id="矢量 375" d="M16.4399 8C16.4399 7.75699 16.2429 7.56 15.9999 7.56C15.7569 7.56 15.5599 7.75699 15.5599 8C15.5599 8.243 15.7569 8.43999 15.9999 8.43999C16.2429 8.43999 16.4399 8.243 16.4399 8Z" stroke="#000000" stroke-width="1.500000"/>
		<path id="矢量 376" d="M8.43994 8C8.43994 7.75699 8.24294 7.56 7.99994 7.56C7.75693 7.56 7.55994 7.75699 7.55994 8C7.55994 8.243 7.75693 8.43999 7.99994 8.43999C8.24294 8.43999 8.43994 8.243 8.43994 8Z" stroke="#000000" stroke-width="1.500000"/>
	</g>
</svg>
