<svg width="16.000000" height="16.000000" viewBox="0 0 16 16" fill="none" xmlns="http://www.w3.org/2000/svg" xmlns:xlink="http://www.w3.org/1999/xlink">
	<desc>
			Created with Pixso.
	</desc>
	<defs/>
	<g opacity="0.000100">
		<rect id="矩形" width="16.000000" height="16.000000" fill="#000000"/>
	</g>
	<path id="形状结合" d="M0.992981 8.16737C0.992981 4.30174 4.12735 1.16737 7.99298 1.16737C11.8586 1.16737 14.993 4.30174 14.993 8.16737C14.993 12.033 11.8586 15.1674 7.99298 15.1674C4.12735 15.1674 0.992981 12.033 0.992981 8.16737ZM2.18048 8.16737C2.18048 11.3767 4.7836 13.9799 7.99298 13.9799C11.2024 13.9799 13.8055 11.3767 13.8055 8.16737C13.8055 4.95799 11.2024 2.35487 7.99298 2.35487C4.7836 2.35487 2.18048 4.95799 2.18048 8.16737ZM8.49455 8.53449L10.7227 10.1454C10.7789 10.1845 10.7914 10.2626 10.7508 10.3204L10.3039 10.9298C10.2633 10.9845 10.1852 10.997 10.1289 10.9564L7.54456 9.07199C7.51173 9.04855 7.49298 9.01105 7.49298 8.97042L7.49298 4.6673C7.49298 4.59855 7.54924 4.5423 7.61798 4.5423L8.36955 4.5423C8.43829 4.5423 8.49455 4.59855 8.49455 4.6673L8.49455 8.53449Z" clip-rule="evenodd" fill-rule="evenodd" fill="#000000" fill-opacity="0.650000"/>
	<circle id="椭圆 1" r="6.500000" transform="matrix(1 0 0 1 8 8)" stroke="#595959"/>
</svg>
