<svg width="284.593506" height="211.640625" viewBox="0 0 284.594 211.641" fill="none" xmlns="http://www.w3.org/2000/svg" xmlns:xlink="http://www.w3.org/1999/xlink">
	<desc>
			Created with Pixso.
	</desc>
	<defs/>
	<path id="JK" d="M73.7578 0.84375Q73.4766 1.6875 72.6328 1.6875L72.2812 1.6875Q72.2812 2.03906 71.1562 2.03906Q69.75 2.03906 69.4688 2.32031L67.7109 2.32031Q66.8672 2.03906 66.8672 2.03906Q66.8672 2.88281 67.0078 4.21875Q67.1484 5.48438 66.8672 8.36719L66.8672 61.3125L66.8672 82.9688L66.5859 94.7109L66.5859 169.945Q66.2344 170.508 66.2344 172.758Q65.1094 175.359 64.2656 176.273Q60.8203 180.844 59.0625 180.844Q57.9375 180.844 57.6562 181.125Q53.2969 182.602 46.6875 182.602Q39.7969 182.602 29.3906 179.719Q19.8984 176.836 16.4531 174.234L15.6094 173.953Q13.8516 173.109 10.4062 169.031L7.24219 165.586Q2.88281 160.664 2.88281 160.664L2.60156 160.383L2.32031 161.016Q2.32031 161.016 2.17969 160.875Q2.03906 160.664 2.03906 161.297L1.75781 161.859Q0 163.547 0 165.867Q0 168.188 3.79688 177.117L5.20312 179.156Q6.67969 181.125 9.84375 185.625Q13.0078 190.055 13.8516 190.617Q14.6953 190.617 14.9766 191.531Q16.1719 193.5 24.5391 200.18Q25.3828 200.742 27.0703 201.586Q28.8281 202.43 31.4297 203.906Q39.5156 208.758 46.4062 209.391L49.0078 209.953Q55.8984 211.641 65.1094 211.641Q70.0312 211.641 72 211.078L77.2031 209.953Q81.8438 209.672 83.25 208.477L84.7266 207.633Q85.5703 207.633 86.4141 206.227L88.4531 205.031L89.2969 204.469L90.1406 203.625Q92.4609 201.305 93.375 199.828Q93.9375 199.547 94.5 197.859Q96.8203 194.695 98.2266 188.93L99.0703 185.203Q99.0703 184.289 99.4219 184.008L99.9844 180L100.266 175.992L101.109 169.594Q101.672 167.344 101.672 161.016Q101.953 158.414 101.812 156.094Q101.672 153.773 101.953 152.086Q102.234 150.609 102.234 137.953L102.586 128.742Q102.867 128.461 102.867 99.0703L102.867 76.2891Q103.148 71.7188 103.43 67.1484Q103.711 62.5078 103.43 63.3516Q103.43 56.4609 103.992 56.1797Q104.273 53.0156 104.273 36.2812Q104.273 20.7422 103.43 14.6953Q103.148 12.9375 101.812 10.1953Q100.547 7.45312 99.7031 7.45312L99.4219 7.17188L95.625 5.20312L94.2188 4.57031Q90.7734 3.44531 90.7734 3.44531L89.8594 3.16406Q89.8594 3.16406 86.9766 2.60156Q85.0078 2.32031 84.0938 1.40625Q82.4062 0 82.6875 1.125Q82.6875 1.40625 82.125 1.40625Q80.9297 0.84375 78.6797 0.84375L76.9219 0.5625Q76.6406 0.5625 76.2188 0.703125Q75.7969 0.84375 75.1641 0.5625L74.0391 0L73.7578 0.84375ZM139.679 0.5625Q137.992 0.5625 137.148 0.84375Q132.226 0.84375 131.945 0.5625Q130.75 0 130.75 0.5625Q130.75 0.84375 129.484 0.84375Q128.219 0.84375 127.586 0.84375Q127.304 0.84375 126.742 0.703125Q126.179 0.5625 126.179 0.84375L125.898 0.5625Q125.898 0 125.336 0.5625Q125.054 0.84375 123.859 0.5625Q123.297 0.28125 123.015 0.5625Q122.734 0.84375 122.734 1.40625Q121.539 4.92188 121.539 9.49219Q121.258 12.9375 121.258 27.3516Q121.258 46.3359 120.695 50.9766Q120.695 51.8203 120.554 57.1641Q120.414 62.5078 120.414 83.25Q120.414 117.211 120.133 120.656Q120.133 143.156 119.289 150.047L119.289 156.656Q119.289 162.141 118.937 162.141L118.656 198.422Q118.656 205.312 119.289 205.312Q120.414 205.312 120.976 206.789Q122.172 209.109 123.156 209.531Q124.14 209.953 127.304 209.953L139.679 211.359L150.367 211.641L154.937 211.641Q157.82 211.641 158.945 211.359Q160.14 211.078 160.703 209.953Q163.023 205.945 163.023 200.742L163.023 181.406L163.023 158.414Q163.023 137.953 163.867 135.633Q164.219 134.789 164.219 122.133L164.5 110.32Q164.5 110.32 165.906 111.727L173.148 118.969L180.039 125.578L186.648 131.625Q188.406 133.312 194.312 138.938Q200.219 144.562 203.945 147.445L209.711 152.086L215.758 156.656L219.484 159.82L224.406 164.18L229.82 168.469Q239.101 176.273 241.914 178.805Q248.875 185.203 254.922 191.25Q257.523 193.781 262.656 198.141L264.414 199.266Q264.976 200.18 266.734 200.18L269.336 201.023Q271.304 201.586 273.062 200.742Q273.625 200.18 273.625 200.461Q273.906 200.461 273.906 200.18Q273.906 199.828 274.187 199.547Q274.469 199.266 274.75 198.984L275.945 197.016Q276.789 194.133 278.828 192.656L279.39 192.375Q279.109 192.375 279.531 191.953Q279.953 191.531 280.515 190.969Q281.992 189.492 281.992 188.93Q281.992 188.367 282.554 188.367L283.117 187.734Q282.836 187.734 283.679 185.766Q284.594 184.008 284.594 180.562Q284.594 178.242 283.117 175.992L282.273 174.516Q281.711 172.477 280.234 171.07L279.953 170.789Q279.953 169.945 277.633 167.625Q273.906 163.828 267.578 159.258L258.648 152.367L256.047 150.328L253.164 148.008L250.281 145.688L248.875 144.844L246.554 142.805Q245.711 141.68 244.797 141.68L243.672 140.836L241.914 139.641Q236.781 135.914 234.461 133.945L231.015 131.062Q230.453 130.711 229.539 130.148Q228.695 129.586 228.133 129.305L225.812 127.547Q222.367 125.859 220.328 124.102L216.039 120.938L213.437 118.969L209.711 115.734Q206.547 113.484 206.547 113.484L199.867 109.688L196.703 107.438L194.453 106.242L192.133 104.273L188.969 102.516L186.929 101.391Q181.164 97.5938 179.758 96.75L177.719 95.625L180.039 93.8672L182.078 92.1797L182.359 91.8281Q182.64 91.8281 183.203 91.2656Q183.765 90.7031 184.328 90.4219L187.773 88.1016Q189.25 86.9766 190.375 86.9766Q190.094 86.4141 191.289 85.7812L194.734 83.5312L196.422 82.6172Q196.703 81.7734 198.461 80.5078Q200.219 79.1719 201.062 78.3281L207.953 72.8438Q210.273 72 212.594 69.1172Q213.156 68.5547 213.719 67.8516Q214.281 67.0781 214.281 66.7969L219.765 61.9453Q221.523 60.1875 225.672 56.6016Q229.82 53.0156 232.422 49.7812L235.023 46.9688Q235.023 46.9688 240.508 41.4844Q242.828 39.1641 243.672 38.0391Q244.515 36.8438 244.797 36.5625L245.992 35.4375Q247.117 34.2422 249.719 29.9531Q251.758 26.7891 251.758 26.7891L254.078 24.75Q255.765 23.0625 256.047 21.0234Q256.609 19.2656 256.047 18.4219L254.922 15.8203Q254.922 14.9766 252.32 12.375Q249.719 9.77344 248.031 8.64844Q245.429 7.17188 244.797 8.64844Q244.515 8.92969 243.953 9.49219Q243.39 10.0547 242.547 10.9688Q242.547 10.9688 240.226 13.2188L238.187 15.2578L235.586 18.1406L233.617 20.1797Q232.14 21.5859 231.578 22.7109L229.258 24.75L227.289 27.0703Q225.25 29.1094 223.211 31.9922Q221.804 33.1172 220.75 34.1719Q219.765 35.1562 219.484 35.4375Q219.484 35.4375 215.758 39.1641Q215.476 39.4453 214.14 41.0625Q212.875 42.6094 209.711 45.7734L203.383 51.8203L203.101 52.1016L199.867 54.9844Q199.867 54.9844 194.172 60.75L188.969 65.9531L187.773 67.3594L186.086 69.3984L183.484 72.2812L180.883 74.8828L178.281 77.2031L171.953 84.375L169.351 87.2578L166.469 89.8594L164.5 91.2656Q164.219 91.2656 164.219 86.4141Q164.219 78.8906 164.5 77.2031Q165.062 71.7188 165.625 53.2969L165.625 45.2109L165.625 26.7891L165.625 24.4688Q165.625 19.8984 164.5 17.8594L164.5 14.6953Q164.5 13.5 163.164 11.9531Q161.898 10.3359 161.617 9.21094Q161.336 8.36719 159.719 7.80469Q158.172 7.17188 157.258 6.60938Q150.648 3.44531 148.609 3.44531L147.765 2.32031Q146.922 1.125 145.445 0.84375Q144.039 0.5625 143.476 0.28125Q142.281 -0.28125 141.719 0.28125L139.679 0.5625Z" fill-rule="evenodd" fill="#2C8147"/>
</svg>
