<svg width="230.625000" height="191.250000" viewBox="0 0 230.625 191.25" fill="none" xmlns="http://www.w3.org/2000/svg" xmlns:xlink="http://www.w3.org/1999/xlink">
	<desc>
			Created with Pixso.
	</desc>
	<defs/>
	<path id="JK" d="M60.75 191.25Q47.25 191.25 16.875 185.625Q12.375 185.625 10.125 181.125L7.875 180Q2.25 177.75 1.125 173.25Q0 169.875 0 163.125Q0 153 5.625 145.125Q9 140.625 14.625 142.875L24.75 145.125L36 147.375Q41.625 147.375 41.625 153L43.875 145.125Q45 141.75 45 124.875L45 100.125Q45 77.625 43.875 63Q42.75 48.375 42.75 28.125L42.75 19.125L42.75 14.625Q42.75 6.75 47.8125 3.9375Q52.875 1.125 65.25 1.125Q70.875 1.125 77.625 3.375Q81 4.5 82.125 7.875L86.625 9Q88.875 10.125 91.125 13.5Q92.25 14.625 92.25 20.25L92.25 118.125Q92.25 148.5 90 168.75Q87.75 186.75 75.375 190.125Q72 191.25 60.75 191.25ZM51.75 178.875Q63 178.875 64.125 177.75Q73.125 175.5 74.25 162Q76.5 146.25 76.5 112.5L76.5 10.125Q74.25 7.875 65.25 7.875Q50.625 7.875 49.5 12.375L49.5 28.125Q49.5 48.375 50.625 63Q51.75 77.625 51.75 100.125L51.75 124.875Q51.75 147.375 48.375 153Q48.375 154.125 36 154.125Q32.625 154.125 23.625 151.875L11.25 148.5Q6.75 153 6.75 163.125Q6.75 169.875 7.875 173.25Q36 178.875 51.75 178.875ZM213.75 187.875Q210.375 190.125 204.75 186.75L201.375 183.375Q200.25 183.375 195.75 181.125L151.875 139.5L151.875 157.5L151.875 173.25Q151.875 174.375 152.438 176.625Q153 178.875 150.75 181.125Q146.25 185.625 140.625 186.75Q137.25 187.875 127.125 187.875Q121.5 187.875 115.875 184.5L112.5 181.125Q111.375 181.125 106.875 178.875Q102.375 175.5 102.375 169.875L101.25 64.125Q101.25 6.75 106.875 4.5Q111.375 1.125 122.625 0Q137.25 0 140.625 6.75Q153 9 150.75 19.125Q151.875 28.125 151.875 66.375L186.75 11.25Q187.875 7.875 193.5 5.625L199.125 5.625L198 4.5L199.125 4.5L203.625 6.75L211.5 10.125L212.625 12.375Q214.875 12.375 214.875 13.5L220.5 15.75L221.625 18L225 20.25Q227.25 22.5 227.25 23.625L228.375 24.75L229.5 28.125Q229.5 33.75 227.25 37.125L187.875 103.5Q184.5 108 177.75 106.875L227.25 154.125Q230.625 157.5 230.625 163.125Q230.625 168.75 226.125 175.5Q222.75 184.5 213.75 187.875ZM201.375 176.625Q208.125 173.25 211.5 166.5Q214.875 160.875 214.875 155.25L137.25 81Q136.125 81 136.125 82.125Q136.125 11.25 135 10.125Q133.875 6.75 123.75 6.75L110.25 10.125Q108 12.375 108 66.375L109.125 172.125Q113.625 175.5 118.125 175.5Q127.125 175.5 129.375 174.375Q135 173.25 137.25 171Q136.125 167.625 136.125 151.875L136.125 115.875L201.375 176.625ZM214.875 23.625L211.5 19.125L207 15.75L200.25 12.375Q199.125 11.25 197.438 11.25Q195.75 11.25 194.625 10.125L151.875 79.875Q154.125 84.375 159.75 90Q162 93.375 172.125 95.625L214.875 23.625Z" fill-rule="evenodd" fill="#000000"/>
</svg>
